<svg width="15" height="15" viewBox="0 0 15 15" fill="none" xmlns="http://www.w3.org/2000/svg">
<path d="M11.7188 1.875H9.375C9.375 0.84082 8.53418 0 7.5 0C6.46582 0 5.625 0.84082 5.625 1.875H3.28125C2.50488 1.875 1.875 2.50488 1.875 3.28125V13.5938C1.875 14.3701 2.50488 15 3.28125 15H11.7188C12.4951 15 13.125 14.3701 13.125 13.5938V3.28125C13.125 2.50488 12.4951 1.875 11.7188 1.875ZM4.6875 12.4219C4.29785 12.4219 3.98438 12.1084 3.98438 11.7188C3.98438 11.3291 4.29785 11.0156 4.6875 11.0156C5.07715 11.0156 5.39062 11.3291 5.39062 11.7188C5.39062 12.1084 5.07715 12.4219 4.6875 12.4219ZM4.6875 9.60938C4.29785 9.60938 3.98438 9.2959 3.98438 8.90625C3.98438 8.5166 4.29785 8.20312 4.6875 8.20312C5.07715 8.20312 5.39062 8.5166 5.39062 8.90625C5.39062 9.2959 5.07715 9.60938 4.6875 9.60938ZM4.6875 6.79688C4.29785 6.79688 3.98438 6.4834 3.98438 6.09375C3.98438 5.7041 4.29785 5.39062 4.6875 5.39062C5.07715 5.39062 5.39062 5.7041 5.39062 6.09375C5.39062 6.4834 5.07715 6.79688 4.6875 6.79688ZM7.5 1.17188C7.88965 1.17188 8.20312 1.48535 8.20312 1.875C8.20312 2.26465 7.88965 2.57812 7.5 2.57812C7.11035 2.57812 6.79688 2.26465 6.79688 1.875C6.79688 1.48535 7.11035 1.17188 7.5 1.17188ZM11.25 11.9531C11.25 12.082 11.1445 12.1875 11.0156 12.1875H6.79688C6.66797 12.1875 6.5625 12.082 6.5625 11.9531V11.4844C6.5625 11.3555 6.66797 11.25 6.79688 11.25H11.0156C11.1445 11.25 11.25 11.3555 11.25 11.4844V11.9531ZM11.25 9.14062C11.25 9.26953 11.1445 9.375 11.0156 9.375H6.79688C6.66797 9.375 6.5625 9.26953 6.5625 9.14062V8.67188C6.5625 8.54297 6.66797 8.4375 6.79688 8.4375H11.0156C11.1445 8.4375 11.25 8.54297 11.25 8.67188V9.14062ZM11.25 6.32812C11.25 6.45703 11.1445 6.5625 11.0156 6.5625H6.79688C6.66797 6.5625 6.5625 6.45703 6.5625 6.32812V5.85938C6.5625 5.73047 6.66797 5.625 6.79688 5.625H11.0156C11.1445 5.625 11.25 5.73047 11.25 5.85938V6.32812Z" fill="white"/>
</svg>
