<svg width="15" height="15" viewBox="0 0 15 15" fill="none" xmlns="http://www.w3.org/2000/svg">
<path d="M14.9094 7.11979C13.4971 4.36432 10.7013 2.5 7.49999 2.5C4.29868 2.5 1.50207 4.36563 0.0906108 7.12005C0.0310383 7.23789 0 7.36809 0 7.50013C0 7.63217 0.0310383 7.76237 0.0906108 7.88021C1.50285 10.6357 4.29868 12.5 7.49999 12.5C10.7013 12.5 13.4979 10.6344 14.9094 7.87995C14.9689 7.76211 15 7.63191 15 7.49987C15 7.36783 14.9689 7.23763 14.9094 7.11979ZM7.49999 11.25C6.75831 11.25 6.03328 11.0301 5.4166 10.618C4.79991 10.206 4.31927 9.62029 4.03544 8.93506C3.75161 8.24984 3.67735 7.49584 3.82204 6.76841C3.96674 6.04098 4.32389 5.3728 4.84834 4.84835C5.37278 4.3239 6.04097 3.96675 6.7684 3.82206C7.49583 3.67736 8.24983 3.75162 8.93505 4.03545C9.62027 4.31928 10.2059 4.79993 10.618 5.41661C11.0301 6.0333 11.25 6.75832 11.25 7.5C11.2502 7.99252 11.1534 8.48027 10.965 8.93535C10.7767 9.39043 10.5004 9.80392 10.1522 10.1522C9.8039 10.5005 9.39041 10.7767 8.93533 10.965C8.48025 11.1534 7.99251 11.2502 7.49999 11.25ZM7.49999 5C7.27684 5.00312 7.05514 5.03632 6.84087 5.0987C7.01749 5.33872 7.10225 5.63408 7.07977 5.93124C7.05729 6.22839 6.92906 6.50764 6.71834 6.71836C6.50763 6.92908 6.22837 7.0573 5.93122 7.07978C5.63407 7.10226 5.3387 7.0175 5.09868 6.84089C4.96201 7.34442 4.98668 7.87814 5.16923 8.36693C5.35177 8.85571 5.683 9.27494 6.11629 9.56561C6.54958 9.85629 7.06311 10.0038 7.58461 9.98729C8.10611 9.97082 8.60931 9.79122 9.02339 9.47378C9.43747 9.15634 9.74158 8.71703 9.89291 8.2177C10.0442 7.71838 10.0352 7.18416 9.86699 6.69025C9.69881 6.19635 9.37997 5.76761 8.95536 5.4644C8.53075 5.16119 8.02174 4.99877 7.49999 5Z" fill="white"/>
</svg>
