<svg width="10" height="10" viewBox="0 0 10 10" fill="none" xmlns="http://www.w3.org/2000/svg">
<g clip-path="url(#clip0_97_77)">
<path d="M5 0.15625C2.32506 0.15625 0.15625 2.32584 0.15625 5C0.15625 7.67572 2.32506 9.84375 5 9.84375C7.67494 9.84375 9.84375 7.67572 9.84375 5C9.84375 2.32584 7.67494 0.15625 5 0.15625ZM5 2.30469C5.45305 2.30469 5.82031 2.67195 5.82031 3.125C5.82031 3.57805 5.45305 3.94531 5 3.94531C4.54695 3.94531 4.17969 3.57805 4.17969 3.125C4.17969 2.67195 4.54695 2.30469 5 2.30469ZM6.09375 7.26562C6.09375 7.39506 5.98881 7.5 5.85938 7.5H4.14062C4.01119 7.5 3.90625 7.39506 3.90625 7.26562V6.79688C3.90625 6.66744 4.01119 6.5625 4.14062 6.5625H4.375V5.3125H4.14062C4.01119 5.3125 3.90625 5.20756 3.90625 5.07812V4.60938C3.90625 4.47994 4.01119 4.375 4.14062 4.375H5.39062C5.52006 4.375 5.625 4.47994 5.625 4.60938V6.5625H5.85938C5.98881 6.5625 6.09375 6.66744 6.09375 6.79688V7.26562Z" fill="#59BEFF"/>
</g>
<defs>
<clipPath id="clip0_97_77">
<rect width="10" height="10" fill="white"/>
</clipPath>
</defs>
</svg>
